<?xml version="1.0" encoding="UTF-8" standalone="no"?>
<!-- Created with Inkscape (http://www.inkscape.org/) -->

<svg
   version="1.1"
   id="svg2"
   width="376.22052"
   height="109.196"
   viewBox="0 0 376.22051 109.196"
   sodipodi:docname="ml_SFONDATO.svg"
   inkscape:version="1.1.2 (b8e25be8, 2022-02-05)"
   xmlns:inkscape="http://www.inkscape.org/namespaces/inkscape"
   xmlns:sodipodi="http://sodipodi.sourceforge.net/DTD/sodipodi-0.dtd"
   xmlns="http://www.w3.org/2000/svg"
   xmlns:svg="http://www.w3.org/2000/svg">
  <defs
     id="defs6">
    <clipPath
       clipPathUnits="userSpaceOnUse"
       id="clipPath16">
      <path
         d="M 0,595.276 H 841.89 V 0 H 0 Z"
         id="path14" />
    </clipPath>
  </defs>
  <sodipodi:namedview
     id="namedview4"
     pagecolor="#ffffff"
     bordercolor="#000000"
     borderopacity="0.25"
     inkscape:showpageshadow="2"
     inkscape:pageopacity="0.0"
     inkscape:pagecheckerboard="0"
     inkscape:deskcolor="#d1d1d1"
     inkscape:pageshadow="2"
     showgrid="false"
     fit-margin-top="0"
     fit-margin-left="0"
     fit-margin-right="0"
     fit-margin-bottom="0"
     inkscape:zoom="0.80382879"
     inkscape:cx="146.17541"
     inkscape:cy="52.249932"
     inkscape:window-width="1495"
     inkscape:window-height="860"
     inkscape:window-x="0"
     inkscape:window-y="38"
     inkscape:window-maximized="0"
     inkscape:current-layer="g8" />
  <g
     id="g8"
     inkscape:groupmode="layer"
     inkscape:label="ml_SFONDATO"
     transform="matrix(1.3333333,0,0,-1.3333333,-374.19159,449.69346)">
    <g
       id="g10">
      <g
         id="g12"
         clip-path="url(#clipPath16)">
        <path
           d="m 543.046,301.998 h 11.857 v -1.284 h -11.857 z m -26.403,-12.104 c -0.256,0 -0.356,0.097 -0.356,0.297 0,0.201 0,0.303 0.149,0.453 l 17.331,25.408 h -13.408 c -1.666,0 -2.576,-1.046 -2.732,-1.046 -0.098,0 -0.252,0.149 -0.203,0.349 l 0.408,1.903 c 0.051,0.249 0.156,0.449 0.352,0.449 0.148,0 0.607,-0.296 3.935,-0.296 h 15.353 l 0.252,-0.906 -16.785,-24.609 c 3.036,0.019 12.576,-0.323 16.757,-0.743 l 10.174,23.535 c 0.311,0.656 0.254,1.152 -0.099,1.855 l -0.555,1.152 h 3.328 c 0.205,0 0.404,-0.097 0.508,-0.352 l 11.556,-27.987 -3.38,-0.454 -5.274,13.013 -4.611,11.621 -5.006,-11.609 -5.147,-12.571 c -4.466,0.699 -20.049,1.397 -22.547,0.538 m -1.303,27.517 c 0,-0.254 -0.057,-0.607 -0.965,-0.654 -2.322,-0.098 -2.424,-0.652 -2.424,-2.654 v -24.634 l -1.961,-0.398 -18.076,24.631 h -0.049 v -24.181 l -1.562,-0.45 v 25.032 c 0,2.002 -0.098,2.556 -2.422,2.654 -0.916,0.047 -0.916,0.4 -0.916,0.654 0,0.347 0.156,0.549 0.459,0.496 1.717,-0.2 4.949,-0.298 6.211,-0.4 0.097,-0.15 0.261,-0.296 0.408,-0.503 l 16.299,-22.628 v 19.727 c 0,2.002 -0.1,2.556 -2.424,2.654 -0.906,0.047 -0.963,0.4 -0.963,0.654 0,0.347 0.203,0.496 0.506,0.496 0.711,0 3.027,-0.4 3.887,-0.4 0.808,0 2.83,0.4 3.484,0.4 0.297,0 0.508,-0.149 0.508,-0.496 m -34.723,-13.418 0.029,-1.106 h -0.292 -8.586 v -10.264 c 0,-1.65 0.048,-2.002 1.31,-2.207 1.014,-0.144 1.865,-0.244 3.279,-0.244 1.409,0 3.733,0.052 4.797,0.244 0.703,0.151 1.407,-0.095 1.719,1.753 0.352,1.904 0.703,2.002 0.955,2.002 0.303,0 0.303,-0.098 0.303,-0.596 0,-1.05 -0.049,-2.304 -0.106,-3.605 -0.048,-1.004 -0.246,-1.053 -1.152,-1.004 -1.318,0.049 -3.594,0.154 -5.41,0.203 -1.555,0.046 -4.943,0.095 -6.25,0.095 l -2.775,-0.193 v 25.032 c 0,2.002 -0.157,2.556 -2.481,2.654 -0.904,0.047 -0.904,0.353 -0.904,0.6 0,0.35 0.201,0.55 0.504,0.55 0.302,0 0.908,-0.095 1.718,-0.249 0.811,-0.151 2.219,-0.247 3.323,-0.247 1.318,0 5.097,0.046 6.668,0.096 1.818,0.051 2.88,0.102 4.191,0.151 0.908,0.049 1.104,0.049 1.152,-0.95 0.059,-1.301 0.108,-2.605 0.108,-3.657 0,-0.498 0,-0.601 -0.303,-0.601 -0.254,0 -0.605,0.103 -0.957,2.002 -0.303,1.854 -1.008,1.653 -1.711,1.802 -0.467,0.102 -1.375,0.102 -1.621,0.102 h -5.301 c -0.754,0 -1.056,-0.203 -1.056,-0.703 v -11.66 h 8.586 z m -19.471,13.218 c 0,-0.254 -0.41,-0.653 -1.718,-0.855 -1.006,-0.151 -1.114,-1.252 -1.114,-2.199 v -24.734 l -3.324,-0.303 v 25.037 c 0,0.998 -0.156,2.048 -1.006,2.199 -1.67,0.303 -1.923,0.601 -1.923,0.855 0,0.296 0.097,0.447 0.595,0.398 1.221,-0.102 3.145,-0.198 4.096,-0.198 0.957,0 2.574,0.096 3.789,0.198 0.498,0.049 0.605,-0.102 0.605,-0.398 m -12.285,-7.117 c 0,-5.157 -3.826,-8.708 -9.636,-8.708 -1.26,0 -2.926,0.9 -2.926,1.402 0,0.099 0.152,0.396 0.303,0.396 0.201,0 1.265,-0.6 2.373,-0.6 4.892,0 6.558,2.903 6.558,6.56 0,4.593 -2.012,7.176 -8.73,7.176 -1.207,0 -1.412,-0.244 -1.412,-1.534 v -25.317 l -3.33,-0.398 v 25.015 c 0,1.99 -0.102,2.546 -2.422,2.646 -0.909,0.044 -0.957,0.391 -0.957,0.645 0,0.348 0.195,0.493 0.498,0.493 0.308,0 0.914,-0.093 1.718,-0.244 0.811,-0.147 2.428,-0.249 3.536,-0.249 1.714,0 4.39,0.2 6.103,0.2 3.834,0 8.324,-2.742 8.324,-7.483 m -21.414,-20.625 -11.552,27.988 c -0.108,0.25 -0.309,0.355 -0.514,0.355 h -3.324 l 0.55,-1.153 c 0.348,-0.701 0.411,-1.208 0.098,-1.854 l -11.098,-25.685 2.422,0.349 4.594,11.268 h 10.699 l 4.746,-11.722 z m -8.681,12.563 h -9.59 l 4.994,11.619 z m -18.957,-3.399 c 0,-6.308 -5.811,-10.014 -12.012,-10.014 -2.324,0 -7.127,0.752 -9.85,2.608 l 0.711,1.445 c 1.916,-1.651 6.963,-2.954 9.139,-2.954 4.892,0 9.492,2.812 9.492,7.822 0,3.241 -2.449,4.565 -5.574,5.893 -2.549,1.072 -5.42,2.386 -8.047,3.654 -3.865,1.865 -5.184,4.449 -5.254,8.254 -0.088,4.627 2.988,9.727 11.524,9.727 2.019,0 5.105,-0.399 7.675,-0.894 0.106,-1.959 0.155,-3.964 0.155,-5.513 0,-0.651 0,-0.754 -0.352,-0.754 -0.303,0 -0.449,0.103 -0.857,2.505 -0.352,1.956 -2.94,3.557 -6.975,3.557 -3.887,0 -8.887,-2.608 -8.887,-7.365 0,-8.708 19.112,-5.954 19.112,-17.971"
           style="fill:#ffffff;fill-opacity:1;fill-rule:nonzero;stroke:none"
           id="path18" />
        <g
           id="g20"
           transform="translate(490.5586,278.8486)">
          <path
             d="m 0,0 h -1.484 c -0.452,0 -0.655,-0.18 -0.655,-0.697 v -8.756 c 0,-0.619 0.02,-0.658 0.44,-0.78 0.517,-0.157 1.16,-0.201 1.961,-0.201 3.174,0 4.414,2.221 4.414,5.258 C 4.676,-2.514 3.936,0 0,0 m 0.115,-10.932 c -0.537,0 -1.658,0.259 -2.556,0.201 l -1.221,-0.079 v 10.009 c 0,0.762 0,0.924 -0.859,0.963 C -4.922,0.182 -5,0.264 -5,0.42 c 0,0.182 0.098,0.283 0.301,0.283 0.217,0 0.48,-0.058 0.703,-0.101 0.314,-0.065 0.898,-0.104 1.318,-0.104 0.401,0 0.801,0.02 1.194,0.039 0.505,0.02 1.062,0.045 1.922,0.045 3.398,0 5.917,-2.197 5.917,-5.518 0,-3.554 -2.341,-5.996 -6.24,-5.996"
             style="fill:#ffffff;fill-opacity:1;fill-rule:nonzero;stroke:none"
             id="path22" />
        </g>
        <g
           id="g24"
           transform="translate(502.2363,278.8486)">
          <path
             d="m 0,0 c -0.361,-0.059 -0.361,-0.459 -0.361,-0.781 v -9.892 l -1.524,-0.117 v 10.009 c 0,0.342 -0.019,0.722 -0.32,0.781 -0.637,0.098 -0.84,0.123 -0.84,0.322 0,0.176 0.086,0.28 0.34,0.26 0.48,-0.045 1.24,-0.084 1.621,-0.084 0.373,0 1.018,0.039 1.504,0.084 C 0.676,0.602 0.754,0.498 0.754,0.322 0.754,0.137 0.49,0.078 0,0"
             style="fill:#ffffff;fill-opacity:1;fill-rule:nonzero;stroke:none"
             id="path26" />
        </g>
        <g
           id="g28"
           transform="translate(513.6348,281.749)">
          <path
             d="m 0,0 h -0.879 c -0.342,0 -0.517,-0.264 -0.517,-0.684 v -6.132 c 0.32,-0.039 0.458,-0.059 0.859,-0.059 3.154,0 3.641,2.236 3.641,3.818 C 3.104,-1.201 2.361,0 0,0 m 6.756,-13.954 c -0.078,-0.078 -0.596,-0.117 -0.938,-0.059 -0.74,0.122 -1.22,0.284 -1.738,1.06 l -0.859,1.279 -2.717,4.379 C 0.084,-7.377 -0.02,-7.416 -0.859,-7.416 h -0.537 v -6.118 l -1.602,-0.22 v 12.65 c 0,0.963 -0.014,1.163 -1.115,1.221 -0.461,0.02 -0.559,0.039 -0.559,0.24 0,0.264 0.158,0.303 0.334,0.303 0.184,0 0.486,-0.058 0.887,-0.123 0.4,-0.058 1.293,-0.137 1.836,-0.137 0.898,0 1.818,0.118 2.717,0.118 2.002,0 3.718,-1.176 3.718,-3.282 0,-2.011 -1.541,-3.73 -2.781,-4.131 l 2.481,-4.062 c 0.72,-1.156 1.121,-1.933 2.197,-2.694 0.144,-0.103 0.164,-0.22 0.039,-0.323 z"
             style="fill:#ffffff;fill-opacity:1;fill-rule:nonzero;stroke:none"
             id="path30" />
        </g>
        <g
           id="g32"
           transform="translate(527.6172,278.9854)">
          <path
             d="m 0,0 c -2.402,0 -4.277,-1.752 -4.277,-5.234 0,-3.057 1.435,-5.273 4.277,-5.273 3.056,0 4.274,2.216 4.274,5.273 C 4.274,-1.674 2.194,0 0,0 m 0,-11.068 c -3.42,0 -5.957,2.441 -5.957,5.814 0,3.561 2.998,5.82 5.957,5.82 3.095,0 5.954,-2.099 5.954,-5.82 0,-3.373 -2.539,-5.814 -5.954,-5.814"
             style="fill:#ffffff;fill-opacity:1;fill-rule:nonzero;stroke:none"
             id="path34" />
        </g>
        <g
           id="g36"
           transform="translate(549.8428,279.0107)">
          <path
             d="m 0,0 c -0.977,-0.039 -0.957,-0.42 -0.859,-1.318 0.117,-1.061 1.14,-9.497 1.14,-9.497 l -1.697,-0.157 -1.006,9.292 -3.738,-8.613 -0.695,-0.122 -4.219,8.774 -0.721,-9.174 -1.439,-0.176 c 0.88,11.493 0.781,9.589 0.82,10.048 0.08,0.722 0,0.904 -0.859,0.943 -0.418,0.02 -0.485,0.18 -0.485,0.316 0,0.225 0.164,0.245 0.322,0.225 0.479,-0.059 1.602,-0.102 2.022,-0.146 0.279,-0.02 0.4,-0.079 0.601,-0.479 l 4.377,-9.053 3.838,9.014 c 0.157,0.381 0.401,0.498 0.682,0.518 0.439,0.044 1.535,0.068 1.994,0.126 C 0.262,0.541 0.479,0.482 0.479,0.277 0.479,0.141 0.42,0.02 0,0"
             style="fill:#ffffff;fill-opacity:1;fill-rule:nonzero;stroke:none"
             id="path38" />
        </g>
        <g
           id="g40"
           transform="translate(557.4111,277.6084)">
          <path
             d="M 0,0 -1.818,-4.395 H 1.68 Z m 3.857,-9.589 -1.875,4.595 h -4.121 l -1.799,-4.419 -1.199,-0.156 4.455,10.233 c 0.104,0.234 0.084,0.377 -0.039,0.635 l -0.277,0.605 h 1.477 c 0.117,0 0.244,-0.082 0.302,-0.205 L 5.398,-9.394 Z"
             style="fill:#ffffff;fill-opacity:1;fill-rule:nonzero;stroke:none"
             id="path42" />
        </g>
        <g
           id="g44"
           transform="translate(390.2285,281.6885)">
          <path
             d="m 0,0 c -0.459,-0.08 -0.459,-0.662 -0.479,-1.018 0,-0.142 -0.105,-5.156 -0.4,-7.496 -0.223,-1.66 -0.943,-5.316 -5.017,-5.316 -4.1,0 -5.165,3.197 -5.44,5.355 -0.164,1.159 -0.223,4.678 -0.223,6.495 0,0.582 -0.039,0.962 -0.039,0.962 -0.019,0.44 -0.019,0.957 -0.4,1.018 -0.918,0.158 -1.037,0.178 -1.037,0.32 0,0.239 0.144,0.258 0.4,0.239 0.598,-0.039 1.418,-0.079 1.897,-0.079 0.478,0 1.14,0.04 1.738,0.079 0.264,0.019 0.4,0 0.4,-0.239 0,-0.142 -0.177,-0.201 -0.918,-0.32 -0.42,-0.08 -0.5,-0.52 -0.478,-1.018 0,0 0.058,-4.599 0.176,-6.855 0.203,-3.522 1.705,-5.337 3.924,-5.337 2.734,0 3.994,2.235 4.197,5.175 0.158,2.314 0.158,4.433 0.158,6.572 v 0.445 c 0,0.44 -0.02,0.957 -0.4,1.018 -0.918,0.158 -1.038,0.178 -1.038,0.32 0,0.239 0.139,0.258 0.401,0.239 0.598,-0.039 1.213,-0.079 1.699,-0.079 0.481,0 0.801,0.04 1.397,0.079 0.263,0.019 0.4,0 0.4,-0.239 C 0.918,0.178 0.742,0.119 0,0"
             style="fill:#ffffff;fill-opacity:1;fill-rule:nonzero;stroke:none"
             id="path46" />
        </g>
        <g
           id="g48"
           transform="translate(403.8203,279.0107)">
          <path
             d="m 0,0 c -0.859,-0.039 -0.859,-0.201 -0.859,-0.963 v -0.976 -8.857 l -0.924,-0.195 -7.031,9.511 v -9.296 l -0.821,-0.24 v 9.698 0.355 c 0,0.762 0,0.924 -0.861,0.963 -0.42,0.02 -0.459,0.102 -0.459,0.238 0,0.182 0.08,0.323 0.303,0.303 0.675,-0.078 1.66,-0.121 2.197,-0.166 l 6.756,-9.248 v 6.934 0.976 c 0,0.762 0,0.924 -0.86,0.963 -0.4,0.02 -0.478,0.082 -0.478,0.238 0,0.201 0.117,0.303 0.303,0.303 0.273,0 1.195,-0.166 1.537,-0.166 0.318,0 1.113,0.166 1.377,0.166 0.179,0 0.302,-0.102 0.302,-0.303 C 0.482,0.082 0.398,0.02 0,0"
             style="fill:#ffffff;fill-opacity:1;fill-rule:nonzero;stroke:none"
             id="path50" />
        </g>
        <g
           id="g52"
           transform="translate(409.3359,278.8486)">
          <path
             d="m 0,0 c -0.355,-0.059 -0.355,-0.459 -0.355,-0.781 v -9.892 l -1.524,-0.117 v 10.009 c 0,0.342 -0.019,0.722 -0.322,0.781 -0.635,0.098 -0.836,0.123 -0.836,0.322 0,0.176 0.078,0.28 0.338,0.26 0.478,-0.045 1.24,-0.084 1.621,-0.084 0.381,0 1.015,0.039 1.498,0.084 C 0.68,0.602 0.758,0.498 0.758,0.322 0.758,0.137 0.504,0.078 0,0"
             style="fill:#ffffff;fill-opacity:1;fill-rule:nonzero;stroke:none"
             id="path54" />
        </g>
        <g
           id="g56"
           transform="translate(422.4082,278.9268)">
          <path
             d="m 0,0 c -0.361,-0.059 -0.557,-0.355 -0.699,-0.693 l -3.994,-10.058 -1.065,-0.117 -4.017,9.97 c -0.098,0.224 -0.182,0.562 -0.319,0.761 -0.082,0.137 -0.199,0.196 -0.459,0.221 -0.4,0.02 -0.478,0.082 -0.478,0.238 0,0.182 0.117,0.323 0.318,0.303 0.479,-0.059 1.279,-0.078 1.699,-0.121 0.44,-0.045 0.557,-0.358 0.678,-0.699 l 3.438,-9.096 3.418,8.617 c 0.103,0.235 -0.059,0.557 -0.336,0.596 -0.762,0.123 -0.86,0.244 -0.86,0.342 0,0.156 0.059,0.259 0.336,0.24 0.485,-0.045 0.983,-0.084 1.363,-0.084 0.381,0 0.698,0.039 1.176,0.084 C 0.479,0.523 0.541,0.42 0.541,0.264 0.541,0.146 0.42,0.084 0,0"
             style="fill:#ffffff;fill-opacity:1;fill-rule:nonzero;stroke:none"
             id="path58" />
        </g>
        <g
           id="g60"
           transform="translate(430.9922,268.4785)">
          <path
             d="M 0,0 C -0.02,-0.459 -0.162,-0.503 -0.563,-0.483 -2.1,-0.42 -3.639,-0.264 -5.182,-0.361 L -6.377,-0.439 V 9.589 c 0,0.762 -0.019,0.918 -0.885,0.963 -0.394,0.023 -0.459,0.082 -0.459,0.238 0,0.182 0.104,0.283 0.303,0.283 0.221,0 0.479,-0.058 0.699,-0.101 0.323,-0.065 0.879,-0.104 1.299,-0.104 1.44,0 2.856,0.039 4.301,0.104 0.396,0.023 0.533,0 0.556,-0.465 0.02,-0.518 0.04,-1.035 0.04,-1.436 0,-0.302 -0.063,-0.336 -0.219,-0.336 -0.338,0 -0.264,1.221 -0.602,1.436 -0.254,0.16 -0.996,0.219 -1.156,0.219 h -2.041 c -0.299,0 -0.318,-0.059 -0.318,-0.176 V 5.556 h 2.138 c 0.26,0 0.821,0.019 0.879,0.357 0.143,0.742 0.201,0.883 0.381,0.883 0.221,0 0.24,-0.141 0.221,-0.342 -0.039,-0.459 -0.084,-0.801 -0.084,-1.162 0,-0.355 0.045,-0.717 0.084,-1.176 0.019,-0.201 0,-0.342 -0.221,-0.342 -0.18,0 -0.238,0.141 -0.381,0.879 C -1.9,4.995 -2.379,5.034 -2.721,5.034 H -4.859 V 0.956 c 0,-0.639 0.019,-0.717 0.439,-0.78 0.381,-0.059 0.723,-0.098 1.279,-0.098 0.362,0 2.1,0.02 2.34,0.181 0.342,0.22 0.258,1.498 0.615,1.498 0.166,0 0.225,-0.039 0.225,-0.342 C 0.039,1.015 0.02,0.518 0,0"
             style="fill:#ffffff;fill-opacity:1;fill-rule:nonzero;stroke:none"
             id="path62" />
        </g>
        <g
           id="g64"
           transform="translate(437.3145,278.9072)">
          <path
             d="m 0,0 h -0.576 c -0.401,0 -0.522,-0.195 -0.522,-0.473 v -4.82 c 0.244,-0.02 0.362,-0.039 0.684,-0.039 2.494,0 2.773,1.699 2.773,2.959 C 2.359,-0.898 1.881,0 0,0 m 4.801,-11.093 c -0.723,0 -1.26,0.264 -1.68,0.86 l -0.699,1.02 -2.26,3.438 c -0.338,-0.079 -0.459,-0.079 -0.84,-0.079 h -0.42 v -4.858 l -1.519,-0.176 v 10.029 c 0,0.742 -0.02,0.923 -0.879,0.963 -0.4,0.019 -0.459,0.101 -0.459,0.238 0,0.201 0.117,0.303 0.303,0.303 0.214,0 0.478,-0.059 0.699,-0.102 0.316,-0.064 1.24,-0.104 1.66,-0.104 0.717,0 1.455,0.084 2.178,0.084 1.595,0 3.095,-0.923 3.095,-2.617 0,-1.861 -1.519,-2.998 -2.398,-3.32 2.559,-3.818 1.998,-2.979 2.979,-4.478 0.142,-0.219 0.439,-0.537 0.679,-0.761 0.141,-0.118 0.283,-0.137 0.283,-0.298 0,-0.142 -0.439,-0.142 -0.722,-0.142"
             style="fill:#ffffff;fill-opacity:1;fill-rule:nonzero;stroke:none"
             id="path66" />
        </g>
        <g
           id="g68"
           transform="translate(447.6563,267.917)">
          <path
             d="m 0,0 c -0.742,0 -2.002,0.22 -2.939,0.859 l 0.298,0.698 C -1.938,0.962 -0.664,0.562 0,0.562 c 1.518,0 2.695,0.756 2.695,2.254 0,0.801 -0.699,1.26 -1.318,1.622 -0.996,0.576 -2.076,0.976 -2.934,1.777 -0.664,0.601 -1.181,1.318 -1.181,2.598 0,1.679 1.576,2.822 3.5,2.822 0.634,0 1.435,-0.121 2.334,-0.303 0.043,-0.697 0.043,-1.318 0.043,-1.797 0,-0.219 0,-0.342 -0.205,-0.342 -0.196,0 -0.258,0.123 -0.381,0.86 -0.098,0.537 -0.674,0.976 -1.895,0.976 -1.322,0 -2.459,-0.615 -2.459,-2.035 0,-0.439 0.258,-0.699 0.58,-1.002 C -0.723,7.514 0.098,7.178 0.717,6.875 1.479,6.518 2.256,6.117 2.836,5.518 3.354,4.975 3.695,4.193 3.695,3.236 3.695,1.177 1.996,0 0,0"
             style="fill:#ffffff;fill-opacity:1;fill-rule:nonzero;stroke:none"
             id="path70" />
        </g>
        <g
           id="g72"
           transform="translate(456.5664,278.8486)">
          <path
             d="m 0,0 c -0.355,-0.059 -0.355,-0.459 -0.355,-0.781 v -9.892 l -1.524,-0.117 v 10.009 c 0,0.342 -0.019,0.722 -0.318,0.781 -0.639,0.098 -0.84,0.123 -0.84,0.322 0,0.176 0.078,0.28 0.338,0.26 0.482,-0.045 1.24,-0.084 1.621,-0.084 0.381,0 1.015,0.039 1.498,0.084 C 0.68,0.602 0.758,0.498 0.758,0.322 0.758,0.137 0.504,0.078 0,0"
             style="fill:#ffffff;fill-opacity:1;fill-rule:nonzero;stroke:none"
             id="path74" />
        </g>
        <g
           id="g76"
           transform="translate(468.8496,278.5713)">
          <path
             d="m 0,0 -0.637,0.121 h -3.58 V -10.396 L -5.74,-10.552 V 0.121 c -0.932,0.02 -2.813,0 -2.813,0 -0.84,0 -0.941,-0.185 -1.019,-0.605 -0.039,-0.196 0,-0.873 -0.299,-0.873 h -0.043 c -0.201,0 -0.234,0.117 -0.234,0.336 0,0.4 0,0.917 0.013,1.435 0.02,0.465 0.162,0.488 0.563,0.465 0.521,-0.02 0.961,-0.045 1.679,-0.065 2.139,-0.078 4.317,-0.039 6.455,-0.039 0.559,0 1.202,0.205 1.477,0.205 0.078,0 0.223,-0.039 0.223,-0.205 C 0.262,0.482 0.164,0.439 0,0"
             style="fill:#ffffff;fill-opacity:1;fill-rule:nonzero;stroke:none"
             id="path78" />
        </g>
        <g
           id="g80"
           transform="translate(478.0684,268.0195)">
          <path
             d="M 0,0 -1.875,4.595 H -5.988 L -7.793,0.176 -8.994,0.02 -4.533,10.253 c 0.099,0.234 0.08,0.377 -0.039,0.635 l -0.282,0.605 h 1.483 c 0.117,0 0.234,-0.082 0.295,-0.205 L 1.543,0.195 Z M -3.85,9.589 -5.674,5.194 h 3.504 z m 0.793,2.656 h 0.565 l -2.352,2.354 c -0.256,0.254 -0.431,0.367 -0.607,0.367 -0.293,0 -0.567,-0.211 -0.567,-0.596 0,-0.24 0.11,-0.369 0.694,-0.723 z"
             style="fill:#ffffff;fill-opacity:1;fill-rule:evenodd;stroke:none"
             id="path82" />
        </g>
        <g
           id="g84"
           transform="translate(342.2207,283.7021)">
          <path
             d="m 0,0 c -0.123,-0.391 -0.43,-1 -0.975,-1.439 l -0.439,0.4 c 0.486,0.316 0.867,0.878 0.967,1.19 0.232,0.733 0.056,1.372 -0.578,1.582 C -1.338,1.841 -1.626,1.611 -1.902,1.348 -2.344,0.942 -2.705,0.439 -3.223,0.137 c -0.4,-0.244 -0.857,-0.403 -1.492,-0.191 -0.869,0.293 -1.152,1.343 -0.84,2.339 0.108,0.332 0.293,0.723 0.56,1.226 0.407,-0.113 0.7,-0.21 0.934,-0.288 C -3.934,3.179 -3.813,3.125 -3.872,2.935 -3.911,2.813 -3.984,2.739 -4.441,2.803 -4.637,2.837 -4.912,2.671 -5.103,2.08 -5.301,1.445 -5.186,0.85 -4.59,0.649 c 0.42,-0.141 1.045,0.619 1.294,0.902 0.283,0.314 0.612,0.674 1.011,0.871 0.361,0.19 0.81,0.244 1.281,0.083 C 0.033,2.158 0.332,1.045 0,0 m -6.26,-1.166 c -0.039,-0.137 0.112,-0.176 0.217,-0.225 l 4.57,-2.197 -0.341,-0.957 -4.649,2.236 c -0.295,0.141 -0.234,0.127 -0.408,-0.132 -0.073,-0.118 -0.139,-0.284 -0.285,-0.209 -0.144,0.068 -0.174,0.195 -0.086,0.365 0.117,0.211 0.301,0.566 0.386,0.748 0.081,0.185 0.2,0.498 0.283,0.726 0.069,0.182 0.186,0.241 0.325,0.172 0.11,-0.054 0.078,-0.201 -0.012,-0.527 m 2.014,-4.898 c 0.574,-0.366 0.799,-0.987 0.43,-1.602 -0.149,-0.248 -0.339,-0.479 -0.528,-0.668 -0.055,-0.055 -0.058,-0.059 -0.109,-0.025 l -1.993,1.285 0.161,0.267 c 0.642,1.055 1.365,1.178 2.039,0.743 m -2.715,1.001 c 0.479,-0.308 0.801,-0.738 0.344,-1.494 l -0.178,-0.298 -1.643,1.064 c -0.127,0.084 -0.173,0.107 -0.103,0.225 l 0.079,0.136 c 0.351,0.576 0.922,0.742 1.501,0.367 m 3.164,-0.093 c -0.801,0.517 -1.525,0.201 -2.077,-0.381 0.046,0.596 -0.186,1.094 -0.723,1.435 -0.606,0.391 -1.516,0.084 -2.027,-0.761 -0.173,-0.283 -0.3,-0.576 -0.476,-0.864 -0.114,-0.191 -0.322,-0.494 -0.432,-0.621 -0.085,-0.097 -0.18,-0.195 -0.244,-0.302 -0.083,-0.137 -0.049,-0.284 0.071,-0.362 0.105,-0.062 0.156,-0.039 0.322,0.215 0.203,0.299 0.252,0.254 0.501,0.094 l 0.19,-0.123 4.161,-2.68 c 0,0 0.356,0.688 0.439,0.824 0.178,0.274 0.357,0.391 0.539,0.7 0.623,1.019 0.625,2.265 -0.244,2.826 m -9.365,-6.592 c -0.108,-0.209 -0.078,-0.498 -0.039,-0.674 l 1.155,-5.307 -0.52,-0.454 c -1.905,1.324 -3.171,2.041 -4.724,3.164 -0.117,0.083 -0.176,0.162 -0.315,0.074 -0.254,-0.161 -0.332,-0.137 -0.4,-0.03 -0.078,0.122 -0.047,0.259 0.109,0.342 0.223,0.112 0.574,0.336 0.76,0.444 0.234,0.132 0.403,0.019 0.588,-0.108 l 3.803,-2.665 -1.003,4.468 c -0.059,0.287 -0.593,-0.24 -0.745,-0.006 -0.078,0.127 -0.019,0.221 0.137,0.322 0.283,0.186 0.762,0.684 1.018,0.992 0.125,0.141 0.281,0.102 0.361,-0.019 0.042,-0.074 -0.048,-0.27 -0.185,-0.543 m -8.369,-5.028 c -0.332,-0.162 -0.354,-0.264 -0.237,-0.708 0.137,-0.533 1.289,-4.893 1.289,-4.893 l -1.044,-0.273 -1.141,4.458 -1.154,-4.449 -0.476,-0.161 -2.627,3.897 0.3,-4.449 -0.918,-0.263 -0.332,5.083 c -0.037,0.517 -0.112,0.635 -0.42,0.659 -0.253,0.024 -0.366,0.093 -0.385,0.229 -0.032,0.215 0.153,0.25 0.244,0.254 0.249,0.005 0.903,-0.024 1.118,-0.014 0.186,0.01 0.283,-0.02 0.43,-0.23 l 2.705,-4.121 1.222,4.707 c 0.066,0.23 0.213,0.342 0.381,0.391 0.222,0.054 0.762,0.259 0.994,0.322 0.09,0.024 0.315,0.039 0.344,-0.161 0.02,-0.147 -0.078,-0.176 -0.293,-0.278 m -7.829,-1.099 c -0.137,-0.02 -0.254,-0.088 -0.354,-0.239 l -3.303,-4.678 -0.679,0.088 c -0.344,2.344 -0.596,3.799 -0.849,5.742 -0.015,0.142 -0.005,0.239 -0.162,0.288 -0.288,0.083 -0.319,0.161 -0.293,0.283 0.035,0.142 0.159,0.21 0.323,0.147 0.229,-0.093 0.627,-0.205 0.83,-0.278 0.249,-0.088 0.288,-0.293 0.317,-0.518 l 0.584,-4.697 2.61,3.759 c 0.163,0.24 -0.577,0.284 -0.508,0.567 0.036,0.141 0.146,0.166 0.322,0.112 0.225,-0.078 1.128,-0.151 1.372,-0.151 0.186,-0.005 0.269,-0.069 0.244,-0.235 -0.017,-0.117 -0.132,-0.151 -0.454,-0.19 m -6.682,1.777 c -0.127,0.044 -0.168,-0.112 -0.222,-0.219 l -2.241,-4.571 -0.916,0.386 2.278,4.644 c 0.151,0.302 0.132,0.244 -0.11,0.424 -0.11,0.083 -0.271,0.157 -0.195,0.303 0.068,0.147 0.195,0.171 0.359,0.078 0.197,-0.127 0.539,-0.332 0.713,-0.42 0.17,-0.092 0.473,-0.224 0.695,-0.317 0.166,-0.073 0.223,-0.195 0.154,-0.342 -0.056,-0.112 -0.2,-0.073 -0.515,0.034 m -4.211,-0.464 c -0.906,-1.201 -2.051,-1.684 -3.272,-0.703 -0.322,0.259 -0.554,0.469 -0.713,0.689 -0.097,0.132 -0.085,0.146 0.051,0.332 l 2.732,3.617 c 0.122,0.166 0.198,0.166 0.335,0.049 l 0.598,-0.479 c 1.531,-1.224 1.064,-2.44 0.269,-3.505 m 0.918,-0.571 c 1.044,1.387 0.673,3.154 -0.743,4.287 -0.349,0.278 -0.583,0.453 -0.788,0.606 -0.169,0.121 -0.34,0.244 -0.501,0.375 -0.171,0.136 -0.385,0.332 -0.486,0.455 -0.087,0.092 -0.173,0.205 -0.271,0.283 -0.109,0.088 -0.249,0.092 -0.344,-0.029 -0.107,-0.143 0.02,-0.235 0.166,-0.367 0.264,-0.235 0.218,-0.278 0.037,-0.522 l -3.142,-4.17 c 0.469,-0.322 0.759,-0.513 1.145,-0.903 0.171,-0.176 0.32,-0.342 0.434,-0.43 1.617,-1.299 3.372,-1.069 4.493,0.415 m -3.719,6.445 c -0.09,0.092 -0.234,0.108 -0.403,0.059 l -5.3,-1.494 -0.471,0.502 c 1.145,2.057 1.877,3.404 2.854,5.078 0.078,0.127 0.144,0.195 0.056,0.338 -0.176,0.248 -0.156,0.326 -0.058,0.404 0.109,0.094 0.246,0.065 0.341,-0.088 0.12,-0.224 0.362,-0.566 0.479,-0.756 0.146,-0.23 0.049,-0.416 -0.066,-0.611 l -2.441,-4.092 4.316,1.25 c 0.273,0.084 -0.274,0.596 -0.051,0.772 0.11,0.084 0.215,0.035 0.322,-0.121 0.127,-0.211 0.264,-0.43 0.381,-0.592 0.119,-0.156 0.234,-0.277 0.393,-0.463 0.124,-0.143 0.117,-0.279 0.007,-0.367 -0.068,-0.053 -0.137,-0.029 -0.359,0.181 m -3.593,5.18 c -0.052,-0.01 -0.11,0 -0.306,-0.019 l -0.117,0.41 -0.762,1.597 -4.714,-2.388 -0.525,0.859 4.802,2.442 c -0.207,0.468 -0.607,1.289 -0.607,1.289 -0.232,0.474 -0.293,0.302 -0.625,0.205 -0.154,-0.043 -0.313,-0.063 -0.369,0.049 -0.078,0.171 -0.01,0.24 0.146,0.322 0.183,0.094 0.418,0.205 0.652,0.312 0.276,0.132 0.364,0 0.452,-0.215 0.107,-0.248 0.203,-0.462 0.351,-0.81 0.45,-1.035 0.957,-2.061 1.443,-3.076 0.091,-0.19 0.227,-0.356 0.342,-0.522 0.032,-0.054 0.068,-0.093 0.088,-0.133 0.02,-0.048 0.071,-0.209 -0.085,-0.287 -0.081,-0.045 -0.091,-0.039 -0.166,-0.035 m -8.389,5.327 c -0.134,0.391 -0.242,1.07 -0.068,1.758 l 0.595,-0.049 c -0.212,-0.551 -0.185,-1.237 -0.085,-1.548 0.244,-0.732 0.759,-1.126 1.386,-0.908 0.313,0.114 0.408,0.469 0.477,0.855 0.117,0.598 0.114,1.225 0.349,1.787 0.175,0.444 0.451,0.854 1.079,1.079 0.866,0.308 1.704,-0.356 2.036,-1.348 0.107,-0.332 0.185,-0.761 0.266,-1.323 -0.391,-0.163 -0.684,-0.268 -0.918,-0.349 -0.12,-0.046 -0.254,-0.081 -0.312,0.11 -0.04,0.122 -0.022,0.229 0.378,0.459 0.168,0.097 0.295,0.4 0.1,0.986 -0.207,0.635 -0.644,1.035 -1.24,0.825 -0.413,-0.146 -0.471,-1.142 -0.508,-1.523 -0.041,-0.43 -0.098,-0.918 -0.295,-1.323 -0.181,-0.375 -0.506,-0.694 -0.982,-0.864 -1.028,-0.367 -1.914,0.336 -2.258,1.376 M -9.83,-9.512 c 0.464,-0.42 0.972,-1.074 0.184,-1.992 -0.076,-0.088 -0.118,-0.131 -0.174,-0.18 l -1.78,1.635 c -0.068,0.059 -0.095,0.113 0.003,0.225 l 0.195,0.224 c 0.593,0.69 1.06,0.557 1.572,0.088 m 4.322,-1.449 c -0.063,0.059 -0.135,0.049 -0.185,0.039 -0.186,-0.039 -0.411,-0.058 -0.594,-0.035 -0.85,0.113 -1.624,0.166 -2.481,0.273 0.164,0.518 0.193,1.452 -0.481,2.071 -0.69,0.631 -1.601,0.308 -2.168,-0.352 -0.244,-0.283 -0.466,-0.599 -0.71,-0.889 -0.139,-0.166 -0.456,-0.498 -0.586,-0.605 -0.098,-0.082 -0.212,-0.16 -0.293,-0.258 -0.095,-0.107 -0.129,-0.23 -0.01,-0.342 0.127,-0.113 0.223,-0.035 0.371,0.127 0.247,0.254 0.293,0.215 0.516,0.01 l 3.774,-3.473 0.571,0.84 -1.718,1.582 0.073,0.088 c 0.107,0.127 0.161,0.186 0.229,0.313 l 1.907,-0.205 c 0.627,-0.078 1.104,-0.235 1.592,0.338 0.125,0.14 0.254,0.419 0.193,0.478 m -20.408,-2.623 c -0.036,-0.17 0.15,-0.336 0.316,-0.17 0.513,0.522 1.12,1.566 1.52,3.272 1.27,5.306 0.332,12.098 0.332,12.113 -0.382,2.879 2.237,4.519 4.402,5.576 0.764,0.371 1.419,0.918 1.809,1.392 0.401,0.464 0.745,1.191 0.977,1.963 0.674,2.272 1.972,4.885 4.929,5.032 0.019,0 6.975,0.51 12.09,2.674 1.635,0.693 2.57,1.533 3.008,2.119 0.131,0.191 -0.067,0.34 -0.233,0.273 -4.797,-1.93 -9.433,-2.873 -14.484,-2.931 l -0.486,-0.019 c -1.761,-0.042 -3.33,-0.784 -4.451,-1.95 -1.77,-1.846 -1.318,-5.062 -2.473,-6.336 -1.162,-1.275 -4.091,-1.436 -5.849,-3.438 -1.062,-1.211 -1.658,-2.924 -1.389,-4.629 0.002,-0.002 0.068,-0.532 0.068,-0.542 0.845,-4.868 0.998,-9.438 -0.086,-14.399 m 2.937,1.783 c -0.036,-0.103 0.079,-0.172 0.169,-0.103 0.466,0.332 0.915,1.177 1.54,2.437 0.713,1.446 2.12,5.99 2.193,9.657 0.034,1.421 -0.042,2.837 -0.21,4.239 h -0.044 c -1.116,-0.103 -1.956,-1.011 -1.968,-2.085 0.012,-0.137 0.022,-0.283 0.032,-0.425 0.378,-4.556 -0.215,-9.214 -1.712,-13.72 m 3.331,3.477 c -0.108,-0.221 0,-0.28 0.168,-0.088 0.762,0.849 1.58,1.703 2.139,2.724 1.699,3.096 2.441,6.464 2.441,9.765 0,0.713 -0.039,1.426 -0.098,2.129 -0.042,0.149 -0.039,0.276 -0.012,0.317 0.029,0.047 0.132,0.044 0.295,0.047 0.723,0.061 1.443,0.154 2.158,0.281 3.321,0.586 6.58,1.894 9.388,4.082 0.925,0.719 1.636,1.657 2.358,2.544 0.162,0.2 0.088,0.293 -0.117,0.148 -4.15,-2.912 -8.814,-4.587 -13.604,-4.857 -0.527,-0.018 -1.215,-0.274 -1.757,-0.702 -0.337,-0.263 -0.593,-0.595 -0.671,-0.962 -0.206,-0.495 -0.284,-1.044 -0.225,-1.459 0.586,-4.668 -0.271,-9.454 -2.463,-13.969 m 10.263,19.882 c 3.672,0.725 8.003,2.817 9.33,3.764 1.159,0.824 1.922,1.408 2.178,1.916 0.049,0.101 -0.039,0.201 -0.137,0.147 -4.261,-2.248 -8.857,-3.578 -13.505,-4.024 -0.142,-0.016 -0.288,-0.029 -0.432,-0.039 -1.074,-0.209 -1.839,-1.178 -1.736,-2.306 1.44,0.078 2.876,0.258 4.302,0.542 m -17.958,0.973 c 0.556,0 1.006,-0.228 1.006,-0.417 0,-0.188 -0.45,-0.42 -1.006,-0.42 -0.552,0 -1.001,0.232 -1.001,0.42 0,0.189 0.449,0.417 1.001,0.417 m -2.647,1.637 c -1.733,0 -1.626,0.43 -1.668,0.563 0,0 0.457,0.888 1.678,0.888 1.213,0 1.543,-1.068 1.543,-1.068 0,0 -0.273,-0.383 -1.553,-0.383 m 2.647,-4.881 c -1.073,0 -1.942,0.894 -1.942,1.148 0,0.253 3.887,0.253 3.887,0 0,-0.254 -0.871,-1.148 -1.945,-1.148 m 2.59,4.881 c -1.277,0 -1.545,0.383 -1.545,0.383 0,0 0.322,1.068 1.543,1.068 1.213,0 1.669,-0.888 1.669,-0.888 -0.039,-0.133 0.068,-0.563 -1.667,-0.563 m 2.871,-0.602 c -0.078,0.809 -0.186,2.274 -0.215,3.047 -2.238,0 -4.61,1.712 -5.274,2.778 -0.661,-1.066 -3.037,-2.778 -5.273,-2.778 -0.031,-0.773 -0.136,-2.238 -0.217,-3.047 -0.154,-1.481 0.374,-3.019 1.36,-4.128 0.507,-0.571 1.142,-1.127 1.843,-1.45 0.061,-0.024 0.127,-0.049 0.198,-0.078 l 0.335,-0.146 c 0.19,-0.103 0.297,-0.244 0.483,-0.383 0.519,-0.374 1.25,-0.35 1.269,-0.35 0.025,0 0.752,-0.024 1.272,0.35 0.184,0.139 0.291,0.28 0.486,0.383 l 0.334,0.146 c 0.072,0.029 0.135,0.054 0.198,0.078 0.701,0.323 1.333,0.879 1.843,1.45 0.987,1.109 1.514,2.647 1.358,4.128 m -9.748,10.418 c -1.824,-1.113 -2.359,-1.142 -2.359,-1.142 0,0 -0.012,-1.903 2.712,-0.86 0.957,0.368 3.867,2.007 3.377,2.69 -0.828,1.147 -2.254,0.219 -3.73,-0.688 m 2.55,-2.482 c -4.755,-2.732 -6.422,-0.211 -6.422,-0.211 0,0 -1.81,-2.076 1.181,-2.883 3.159,-0.85 5.298,1.079 5.808,1.451 0.945,0.694 1.14,2.62 -0.567,1.643 m 5.967,2.482 c 1.826,-1.113 2.434,-1.142 2.434,-1.142 0,0 -0.063,-1.903 -2.788,-0.86 -0.956,0.368 -3.871,2.007 -3.376,2.69 0.823,1.147 2.254,0.219 3.73,-0.688 m -2.551,-2.482 c 4.756,-2.732 6.497,-0.211 6.497,-0.211 0,0 1.738,-2.076 -1.253,-2.883 -3.162,-0.85 -5.302,1.079 -5.81,1.451 -0.942,0.694 -1.141,2.62 0.566,1.643 m 7.356,-3.529 c -0.193,-0.263 -1.104,-1.354 -2.542,-1.513 0.022,-0.591 0.032,-1.36 0.071,-1.98 2.346,0.323 3.35,2.084 2.471,3.493 m -2.429,-5.204 c -0.064,-0.689 -0.24,-1.371 -0.52,-2.017 1.601,0.293 2.627,1.232 2.207,3.234 -0.149,-0.319 -0.821,-1.054 -1.687,-1.054 z m -13.227,1.672 c 0.041,0.622 0.051,1.389 0.07,1.983 -1.435,0.157 -2.353,1.25 -2.541,1.514 -0.879,-1.41 0.122,-3.172 2.471,-3.497 m -0.044,-1.548 c -0.865,0 -1.607,0.738 -1.753,1.054 -0.427,-2.002 0.669,-2.936 2.27,-3.229 -0.276,0.643 -0.451,1.325 -0.517,2.014 z m 6.557,40.675 c -18.818,0 -34.126,-18.37 -34.126,-40.949 0,-22.58 15.308,-40.948 34.126,-40.948 18.82,0 34.125,18.368 34.125,40.948 0,22.579 -15.305,40.949 -34.125,40.949 m 0,-80.686 c -18.164,0 -32.939,17.827 -32.939,39.737 0,21.907 14.775,39.735 32.939,39.735 18.166,0 32.941,-17.828 32.941,-39.735 0,-21.91 -14.775,-39.737 -32.941,-39.737 m 11.03,45.88 c -0.098,-1.741 1.95,1.244 0.283,3.599 -1.36,1.936 -2.612,4.556 -0.927,6.911 0.014,0.013 3.854,5.658 5.273,10.918 0.456,1.688 0.368,2.925 0.175,3.62 -0.063,0.224 -0.302,0.165 -0.351,0 -1.419,-4.877 -3.499,-9.016 -6.535,-12.918 0,0 -0.274,-0.38 -0.276,-0.38 -1.043,-1.376 -1.414,-3.041 -1.187,-4.621 0.437,-3.044 3.687,-4.559 3.545,-7.129 m 0.942,8.848 c -0.495,-0.951 -0.202,-2.139 0.713,-2.748 0.845,1.137 1.575,2.349 2.222,3.614 1.674,3.26 2.673,7.884 2.741,9.49 0.066,1.394 0.071,2.349 -0.168,2.859 -0.047,0.103 -0.176,0.097 -0.196,-0.012 -0.839,-4.666 -2.597,-9.011 -5.083,-12.844 z m 1.982,-4.817 c -0.612,-0.834 -0.876,-2.787 0.313,-3.253 0.815,-0.321 3.323,-0.046 4.416,0.391 0.203,0.079 0.164,0.357 0.003,0.423 -0.969,0.404 -2.466,0.783 -3.125,0.937 2.204,3.309 3.62,7.282 3.62,11.556 0,1.155 -0.295,2.286 -0.549,3.388 -0.056,0.248 -0.176,0.248 -0.185,10e-4 -0.254,-4.991 -1.783,-9.602 -4.493,-13.443 m -24.051,6.479 c 1.689,-2.355 0.432,-4.975 -0.926,-6.911 -1.662,-2.355 0.381,-5.34 0.284,-3.599 -0.14,2.57 3.105,4.085 3.544,7.129 0.228,1.58 -0.146,3.245 -1.188,4.621 l -0.276,0.38 c -3.03,3.902 -5.115,8.041 -6.534,12.918 -0.048,0.165 -0.285,0.224 -0.351,0 -0.188,-0.695 -0.276,-1.932 0.176,-3.62 1.425,-5.26 5.263,-10.905 5.271,-10.918 m -4.519,-0.796 c 0.647,-1.265 1.377,-2.477 2.19,-3.633 0.947,0.628 1.24,1.816 0.749,2.767 -0.08,0.119 -0.156,0.241 -0.234,0.359 -2.481,3.833 -4.239,8.178 -5.078,12.844 -0.02,0.109 -0.149,0.115 -0.198,0.012 -0.242,-0.51 -0.232,-1.465 -0.166,-2.859 0.068,-1.606 1.067,-6.23 2.737,-9.49 m -0.655,-7.185 c -0.656,-0.154 -2.148,-0.533 -3.125,-0.937 -0.158,-0.066 -0.195,-0.344 0.008,-0.423 1.093,-0.437 3.603,-0.712 4.416,-0.391 1.189,0.466 0.928,2.419 0.31,3.253 -2.705,3.841 -4.238,8.452 -4.49,13.443 -0.009,0.247 -0.126,0.247 -0.185,-10e-4 -0.254,-1.102 -0.549,-2.233 -0.549,-3.388 0,-4.274 1.416,-8.247 3.615,-11.556 M -28.774,0.815 c 0,0.01 0.064,0.54 0.066,0.542 0.266,1.705 -0.325,3.418 -1.389,4.629 -1.756,2.002 -4.685,2.163 -5.847,3.438 -1.155,1.274 -0.703,4.49 -2.478,6.336 -1.116,1.166 -2.688,1.908 -4.449,1.95 l -0.485,0.019 c -5.049,0.058 -9.686,1.001 -14.485,2.931 -0.166,0.067 -0.367,-0.082 -0.23,-0.273 0.437,-0.586 1.367,-1.426 3.006,-2.119 5.114,-2.164 12.07,-2.674 12.089,-2.674 2.959,-0.147 4.256,-2.76 4.932,-5.032 0.232,-0.772 0.576,-1.499 0.977,-1.963 0.39,-0.474 1.045,-1.021 1.809,-1.392 2.165,-1.057 4.782,-2.697 4.401,-5.576 0,-0.015 -0.939,-6.807 0.325,-12.113 0.407,-1.706 1.013,-2.75 1.529,-3.272 0.166,-0.166 0.351,0 0.312,0.17 -1.082,4.961 -0.928,9.531 -0.083,14.399 m -4.563,1.104 c 0.01,0.142 0.02,0.288 0.029,0.425 -0.017,1.074 -0.849,1.982 -1.965,2.085 h -0.044 c -0.168,-1.402 -0.244,-2.818 -0.21,-4.239 0.071,-3.667 1.48,-8.211 2.193,-9.657 0.622,-1.26 1.074,-2.105 1.538,-2.437 0.092,-0.069 0.205,0 0.171,0.103 -1.5,4.506 -2.09,9.164 -1.712,13.72 m -4.082,3.726 c 0.059,0.415 -0.019,0.964 -0.225,1.459 -0.08,0.367 -0.339,0.699 -0.673,0.962 -0.54,0.428 -1.228,0.684 -1.756,0.702 -4.79,0.27 -9.455,1.945 -13.603,4.857 -0.205,0.145 -0.283,0.052 -0.12,-0.148 0.723,-0.887 1.436,-1.825 2.361,-2.544 2.805,-2.188 6.067,-3.496 9.387,-4.082 0.713,-0.127 1.436,-0.22 2.156,-0.281 0.161,-0.003 0.268,0 0.295,-0.047 0.03,-0.041 0.032,-0.168 -0.009,-0.317 -0.061,-0.703 -0.098,-1.416 -0.098,-2.129 0,-3.301 0.742,-6.669 2.441,-9.765 0.559,-1.021 1.377,-1.875 2.139,-2.724 0.173,-0.192 0.276,-0.133 0.168,0.088 -2.192,4.515 -3.049,9.301 -2.463,13.969 m -3.498,5.371 c 0.1,1.128 -0.662,2.097 -1.736,2.306 -0.147,0.01 -0.293,0.023 -0.432,0.039 -4.649,0.446 -9.246,1.776 -13.511,4.024 -0.098,0.054 -0.186,-0.046 -0.137,-0.147 0.261,-0.508 1.023,-1.092 2.185,-1.916 1.326,-0.947 5.654,-3.039 9.334,-3.764 1.418,-0.284 2.854,-0.464 4.297,-0.542 m 12.758,30.706 c -1.096,-1.252 -1.292,-4.544 -1.419,-6.025 -1.1,0.986 -2.712,2.418 -4.211,2.461 -0.183,0.007 -0.417,-0.032 -0.202,-0.263 0.732,-0.79 2.449,-2.625 3.261,-3.506 0.381,-0.416 0.801,-0.562 1.191,-0.589 0.218,-0.012 0.352,0.002 0.462,0.019 0.076,0.002 0.288,0.08 0.337,0.121 0.137,0.082 0.269,0.185 0.396,0.312 0.29,0.316 0.498,0.712 0.495,1.27 -0.002,1.239 0.003,4.664 0.003,5.997 0.005,0.339 -0.191,0.341 -0.313,0.203 m 1.382,-0.203 c 0,-1.333 0.01,-4.758 0,-5.997 0,-0.558 0.207,-0.954 0.471,-1.241 0.156,-0.156 0.291,-0.259 0.423,-0.341 0.049,-0.041 0.26,-0.119 0.337,-0.121 0.107,-0.017 0.246,-0.031 0.424,-0.022 0.427,0.03 0.847,0.176 1.228,0.592 0.811,0.881 2.529,2.716 3.262,3.506 0.215,0.231 -0.013,0.27 -0.198,0.263 -1.504,-0.043 -3.115,-1.475 -4.209,-2.461 -0.136,1.481 -0.361,4.773 -1.455,6.025 -0.127,0.138 -0.283,0.136 -0.283,-0.203"
             style="fill:#ffffff;fill-opacity:1;fill-rule:evenodd;stroke:none"
             id="path86" />
        </g>
      </g>
    </g>
  </g>
</svg>
